<?xml version="1.0" encoding="UTF-8" standalone="no"?>
<!-- Created with Inkscape (http://www.inkscape.org/) -->

<svg
   xmlns:dc="http://purl.org/dc/elements/1.1/"
   xmlns:cc="http://creativecommons.org/ns#"
   xmlns:rdf="http://www.w3.org/1999/02/22-rdf-syntax-ns#"
   xmlns:svg="http://www.w3.org/2000/svg"
   xmlns="http://www.w3.org/2000/svg"
   xmlns:xlink="http://www.w3.org/1999/xlink"
   xmlns:sodipodi="http://sodipodi.sourceforge.net/DTD/sodipodi-0.dtd"
   xmlns:inkscape="http://www.inkscape.org/namespaces/inkscape"
   version="1.0"
   width="256"
   height="256"
   id="svg2"
   inkscape:version="0.92.4 (5da689c313, 2019-01-14)"
   sodipodi:docname="openTTT.svg"
   inkscape:export-filename="C:\Users\past\Downloads\openTTT.png"
   inkscape:export-xdpi="96"
   inkscape:export-ydpi="96">
  <metadata
     id="metadata42">
    <rdf:RDF>
      <cc:Work
         rdf:about="">
        <dc:format>image/svg+xml</dc:format>
        <dc:type
           rdf:resource="http://purl.org/dc/dcmitype/StillImage" />
      </cc:Work>
    </rdf:RDF>
  </metadata>
  <sodipodi:namedview
     pagecolor="#ffffff"
     bordercolor="#666666"
     borderopacity="1"
     objecttolerance="10"
     gridtolerance="10"
     guidetolerance="10"
     inkscape:pageopacity="0"
     inkscape:pageshadow="2"
     inkscape:window-width="1920"
     inkscape:window-height="1137"
     id="namedview40"
     showgrid="false"
     inkscape:zoom="0.99999999"
     inkscape:cx="65.070678"
     inkscape:cy="399.40026"
     inkscape:window-x="1912"
     inkscape:window-y="-8"
     inkscape:window-maximized="1"
     inkscape:current-layer="svg2" />
  <defs
     id="defs4">
    <inkscape:perspective
       sodipodi:type="inkscape:persp3d"
       inkscape:vp_x="0 : 124 : 1"
       inkscape:vp_y="0 : 1000 : 0"
       inkscape:vp_z="256 : 124 : 1"
       inkscape:persp3d-origin="128 : 82.666667 : 1"
       id="perspective44" />
    <linearGradient
       id="linearGradient3421">
      <stop
         style="stop-color:#fe7600;stop-opacity:1"
         offset="0"
         id="stop3423" />
      <stop
         style="stop-color:#f2b26d;stop-opacity:1"
         offset="1"
         id="stop3425" />
    </linearGradient>
    <linearGradient
       id="linearGradient3269">
      <stop
         style="stop-color:#ffffff;stop-opacity:1"
         offset="0"
         id="stop3271" />
      <stop
         style="stop-color:#ffffff;stop-opacity:0"
         offset="1"
         id="stop3273" />
    </linearGradient>
    <linearGradient
       x1="312.62323"
       y1="468.58658"
       x2="315.21729"
       y2="471.18063"
       id="linearGradient3275"
       xlink:href="#linearGradient3269"
       gradientUnits="userSpaceOnUse" />
    <linearGradient
       x1="312.62323"
       y1="468.58658"
       x2="315.21729"
       y2="471.18063"
       id="linearGradient3289"
       xlink:href="#linearGradient3269"
       gradientUnits="userSpaceOnUse" />
    <linearGradient
       x1="312.62323"
       y1="468.58658"
       x2="315.21729"
       y2="471.18063"
       id="linearGradient3308"
       xlink:href="#linearGradient3269"
       gradientUnits="userSpaceOnUse"
       gradientTransform="matrix(0.7071068,-0.7071068,0.7071068,0.7071068,-266.24277,420.94154)" />
    <linearGradient
       x1="312.62323"
       y1="468.58658"
       x2="315.21729"
       y2="471.18063"
       id="linearGradient3326"
       xlink:href="#linearGradient3269"
       gradientUnits="userSpaceOnUse"
       gradientTransform="matrix(0.7071068,-0.7071068,0.7071068,0.7071068,-266.24277,420.94154)" />
    <linearGradient
       x1="312.62323"
       y1="468.58658"
       x2="315.21729"
       y2="471.18063"
       id="linearGradient3336"
       xlink:href="#linearGradient3269"
       gradientUnits="userSpaceOnUse"
       gradientTransform="translate(0.3591922,-0.1487874)" />
    <linearGradient
       x1="312.62323"
       y1="468.58658"
       x2="315.21729"
       y2="471.18063"
       id="linearGradient3406"
       xlink:href="#linearGradient3269"
       gradientUnits="userSpaceOnUse"
       gradientTransform="translate(-2.2643187,40.455238)" />
    <linearGradient
       x1="133.3282"
       y1="156.16792"
       x2="117.66125"
       y2="78.463249"
       id="linearGradient3431"
       xlink:href="#linearGradient3421"
       gradientUnits="userSpaceOnUse" />
    <linearGradient
       x1="133.3282"
       y1="156.16792"
       x2="117.66125"
       y2="78.463249"
       id="linearGradient3488"
       xlink:href="#linearGradient3421"
       gradientUnits="userSpaceOnUse"
       gradientTransform="translate(2,2)" />
    <linearGradient
       x1="136.3282"
       y1="151.16792"
       x2="117.66125"
       y2="78.463249"
       id="linearGradient3571"
       xlink:href="#linearGradient3421"
       gradientUnits="userSpaceOnUse"
       gradientTransform="rotate(180,248.95312,326.02483)" />
    <filter
       style="color-interpolation-filters:sRGB;"
       inkscape:label="Drop Shadow"
       id="filter5313">
      <feFlood
         flood-opacity="0"
         flood-color="rgb(150,150,150)"
         result="flood"
         id="feFlood5303" />
      <feComposite
         in="flood"
         in2="SourceGraphic"
         operator="out"
         result="composite1"
         id="feComposite5305" />
      <feGaussianBlur
         in="composite1"
         stdDeviation="2"
         result="blur"
         id="feGaussianBlur5307" />
      <feOffset
         dx="5.20833"
         dy="3.1"
         result="offset"
         id="feOffset5309" />
      <feComposite
         in="offset"
         in2="SourceGraphic"
         operator="atop"
         result="fbSourceGraphic"
         id="feComposite5311" />
      <feColorMatrix
         result="fbSourceGraphicAlpha"
         in="fbSourceGraphic"
         values="0 0 0 -1 0 0 0 0 -1 0 0 0 0 -1 0 0 0 0 1 0"
         id="feColorMatrix5315" />
      <feFlood
         id="feFlood5317"
         flood-opacity="0.498039"
         flood-color="rgb(0,0,0)"
         result="flood"
         in="fbSourceGraphic" />
      <feComposite
         in2="fbSourceGraphic"
         id="feComposite5319"
         in="flood"
         operator="out"
         result="composite1" />
      <feGaussianBlur
         id="feGaussianBlur5321"
         in="composite1"
         stdDeviation="2"
         result="blur" />
      <feOffset
         id="feOffset5323"
         dx="5.2"
         dy="3.1"
         result="offset" />
      <feComposite
         in2="fbSourceGraphic"
         id="feComposite5325"
         in="offset"
         operator="atop"
         result="fbSourceGraphic" />
      <feColorMatrix
         result="fbSourceGraphicAlpha"
         in="fbSourceGraphic"
         values="0 0 0 -1 0 0 0 0 -1 0 0 0 0 -1 0 0 0 0 1 0"
         id="feColorMatrix5478" />
      <feFlood
         id="feFlood5480"
         flood-opacity="0.0627451"
         flood-color="rgb(0,0,0)"
         result="flood"
         in="fbSourceGraphic" />
      <feComposite
         in2="fbSourceGraphic"
         id="feComposite5482"
         in="flood"
         operator="out"
         result="composite1" />
      <feGaussianBlur
         id="feGaussianBlur5484"
         in="composite1"
         stdDeviation="108.854"
         result="blur" />
      <feOffset
         id="feOffset5486"
         dx="5.2"
         dy="3.1"
         result="offset" />
      <feComposite
         in2="fbSourceGraphic"
         id="feComposite5488"
         in="offset"
         operator="atop"
         result="composite2" />
    </filter>
  </defs>
  <g
     transform="translate(-246.4375,-405.5443)"
     id="layer1"
     style="display:inline"
     sodipodi:insensitive="true"
     inkscape:label="layer1">
    <g
       id="layer2"
       inkscape:label="layer1"
       style="display:none" />
    <path
       d="m 127.34375,3.46875 c -0.48316,0.02376 -0.94805,0.22615 -1.3125,0.59375 L 7.65625,122.40625 c -0.78094,0.7811 -0.78094,2.06266 0,2.84375 L 25.25,142.84375 5,163.09375 c -0.78094,0.7811 -0.78094,2.03141 0,2.8125 l 80.40625,80.40625 c 0.7811,0.78094 2.03141,0.78093 2.8125,0 l 20.25,-20.25 17.59375,17.59375 c 0.7811,0.78093 2.03141,0.78093 2.8125,0 l 17.5625,-17.5625 20.21875,20.21875 c 0.78108,0.78094 2.06265,0.78093 2.84375,0 l 80.375,-80.40625 c 0.78094,-0.78109 0.78094,-2.0314 0,-2.8125 L 229.65625,142.875 247.25,125.28125 c 0.78094,-0.7811 0.78094,-2.06265 0,-2.84375 L 128.875,4.0625 c -0.0421,-0.04625 -0.11001,-0.11415 -0.15625,-0.15625 -0.39876,-0.33006 -0.89184,-0.46126 -1.375,-0.4375 z m -6,43.5625 H 135.5 v 19.75 c 0.01,0.435733 0.30048,0.815 0.71875,0.9375 2.36672,0.715663 4.34765,1.46009 5.9375,2.1875 1.57854,0.722523 3.76284,1.94 6.53125,3.65625 0.23423,0.144983 0.51508,0.19598 0.78125,0.125 0.26615,-0.07098 0.49406,-0.25764 0.625,-0.5 l 2.875,-5.40625 h 7.75 L 170.0625,104 l -13.625,3.90625 c -4.11145,-10.161057 -10.59377,-17.79909 -19.46875,-22.625 -0.31359,-0.166457 -0.69786,-0.15518 -1,0.03125 -0.30216,0.186431 -0.47688,0.52006 -0.46875,0.875 v 24.03125 c 0.01,0.43573 0.30048,0.815 0.71875,0.9375 10.93974,3.10986 18.88772,6.27714 23.75,9.4375 4.89952,3.1848 8.58915,7.0982 11.15625,11.71875 2.57543,4.63598 3.84364,9.41467 3.84375,14.375 -1.1e-4,5.33303 -1.49612,10.44021 -4.5625,15.40625 -3.05188,4.94228 -7.57932,9.1061 -13.59375,12.46875 -5.99929,3.35409 -12.74816,5.29505 -20.375,5.84375 -0.52771,0.0331 -0.93848,0.47125 -0.9375,1 v 19.25 H 121.34375 V 180 c 0.0115,-0.47702 -0.31562,-0.89572 -0.78125,-1 -6.24994,-1.46738 -12.82661,-4.66999 -19.71875,-9.6875 -0.25021,-0.18733 -0.57446,-0.24211 -0.875,-0.15625 -0.300532,0.0859 -0.54278,0.30252 -0.65625,0.59375 l -3.75,9.25 h -7.625 l -7.875,-42.34375 14.3125,-3.4375 c 2.78387,6.00776 5.47545,10.86469 8.09375,14.4375 2.72545,3.71918 5.79951,6.95217 9.21875,9.6875 2.53873,2.0772 5.32819,3.64369 8.34375,4.6875 0.30262,0.0995 0.64703,0.0602 0.90625,-0.125 0.25923,-0.18516 0.40226,-0.49396 0.40625,-0.8125 v -27.875 c 0.008,-0.43878 -0.2706,-0.83165 -0.6875,-0.96875 -11.9575,-4.0043 -20.14727,-7.50583 -24.4375,-10.375 C 91.88074,118.97403 88.49102,115.30727 86,110.8125 83.50306,106.30724 82.24999,101.8073 82.25,97.25 c -1e-5,-5.212767 1.5369,-10.24246 4.65625,-15.125 3.11104,-4.869387 7.41684,-8.74009 12.96875,-11.625 5.52685,-2.871687 12.35433,-4.48215 20.5,-4.8125 0.54002,-0.01694 0.96896,-0.45971 0.96875,-1 z m -2,37.375 c -3.80484,0.61143 -6.64239,1.484763 -8.125,2.53125 -2.55269,1.82341 -3.68754,3.817503 -3.6875,6.21875 -3e-5,1.99888 0.82821,3.916143 2.6875,5.90625 1.5957,1.70818 4.79074,3.41885 9.125,5.03125 z m 18.15625,55.125 v 22.40625 c 3.64443,-0.60429 6.6344,-1.65745 8.8125,-3.25 2.37481,-1.73646 3.46868,-3.90374 3.46875,-6.875 -7e-5,-2.6212 -0.83434,-4.7944 -2.625,-6.6875 -2.27356,-2.32082 -5.55946,-4.16441 -9.65625,-5.59375 z"
       transform="translate(247,408.36218)"
       style="display:none;fill:#000000;fill-opacity:0.69019608;fill-rule:evenodd;stroke:none"
       id="path3453"
       inkscape:connector-curvature="0" />
    <path
       d="m 372.46875,648.58091 118.375,-118.375 -118.375,-118.375 -118.40625,118.375 z"
       style="display:inline;fill:url(#linearGradient3571);fill-opacity:1;fill-rule:evenodd;stroke:#000000;stroke-width:2;stroke-linecap:round;stroke-linejoin:round;stroke-miterlimit:4;stroke-dasharray:none;stroke-dashoffset:0;stroke-opacity:1"
       id="rect3418"
       inkscape:connector-curvature="0"
       sodipodi:nodetypes="ccccc" />
    <rect
       width="113.67383"
       height="30.562906"
       x="581.44257"
       y="195.29802"
       transform="rotate(45)"
       style="display:inline;fill:#6ad636;fill-opacity:1;fill-rule:evenodd;stroke:#000000;stroke-width:4;stroke-linecap:round;stroke-linejoin:round;stroke-miterlimit:4;stroke-dasharray:none;stroke-dashoffset:0;stroke-opacity:1"
       id="rect3277" />
    <path
       d="m 271.41033,548.04524 -21.3701,21.3701 c -0.51722,0.5028 -0.72366,1.24514 -0.54025,1.94279 0.18341,0.69764 0.72825,1.24248 1.42588,1.42589 0.69765,0.1834 1.44,-0.023 1.9428,-0.54026 l 21.91555,-21.91555 z"
       style="display:inline;opacity:0.7;fill:url(#linearGradient3406);fill-opacity:1;fill-rule:evenodd;stroke:none"
       id="path3404"
       inkscape:connector-curvature="0" />
    <rect
       width="167.41394"
       height="167.41394"
       x="554.57251"
       y="27.848526"
       transform="rotate(45)"
       style="fill:none;stroke:#000000;stroke-width:4;stroke-linecap:round;stroke-linejoin:round;stroke-miterlimit:4;stroke-dasharray:none;stroke-dashoffset:0;stroke-opacity:1"
       id="rect2251" />
    <path
       d="m 373.71159,410.23833 c -0.81035,-0.62925 -1.9654,-0.54334 -2.67374,0.19888 l -118.37411,118.3741 c -0.51722,0.5028 -0.72366,1.24514 -0.54025,1.94279 0.18341,0.69764 0.72825,1.24248 1.42588,1.42589 0.69765,0.1834 1.44,-0.023 1.9428,-0.54026 l 118.3741,-118.3741 c 0.42126,-0.40199 0.64643,-0.96759 0.61671,-1.54911 -0.0297,-0.58152 -0.31136,-1.12123 -0.77139,-1.47819 z"
       style="opacity:0.7;fill:url(#linearGradient3336);fill-opacity:1;fill-rule:evenodd;stroke:none"
       id="path3256"
       inkscape:connector-curvature="0" />
    <rect
       width="113.67384"
       height="30.56292"
       x="54.718613"
       y="-752.58502"
       transform="rotate(135)"
       style="fill:#6ad636;fill-opacity:1;fill-rule:evenodd;stroke:#000000;stroke-width:4.00000048;stroke-linecap:round;stroke-linejoin:round;stroke-miterlimit:4;stroke-dasharray:none;stroke-dashoffset:0;stroke-opacity:1"
       id="rect3279" />
    <rect
       width="11.142811"
       height="14.090264"
       x="602.29895"
       y="203.53435"
       transform="rotate(45)"
       style="fill:none;stroke:#000000;stroke-width:4;stroke-linecap:round;stroke-linejoin:miter;stroke-miterlimit:4;stroke-dasharray:none;stroke-dashoffset:0;stroke-opacity:1"
       id="rect3291" />
    <rect
       width="11.142811"
       height="8.5145016"
       x="622.57172"
       y="203.53435"
       transform="rotate(45)"
       style="fill:none;stroke:#000000;stroke-width:4;stroke-linecap:round;stroke-linejoin:miter;stroke-miterlimit:4;stroke-dasharray:none;stroke-dashoffset:0;stroke-opacity:1"
       id="rect3293" />
    <path
       d="m 308.55497,616.32265 -7.87916,-7.87915 9.96333,-9.96333 7.87916,7.87916"
       style="fill:none;stroke:#000000;stroke-width:4;stroke-linecap:square;stroke-linejoin:miter;stroke-miterlimit:4;stroke-dashoffset:0;stroke-opacity:1"
       id="rect3295"
       inkscape:connector-curvature="0" />
    <path
       d="m 315.01081,622.77849 9.96332,-9.96333 7.87916,7.87916 -9.96333,9.96332"
       style="display:inline;fill:none;stroke:#000000;stroke-width:4;stroke-linecap:square;stroke-linejoin:miter;stroke-miterlimit:4;stroke-dashoffset:0;stroke-opacity:1"
       id="rect3297"
       inkscape:connector-curvature="0" />
    <path
       d="m 427.09359,605.64776 -7.87916,7.87915"
       style="display:inline;fill:none;stroke:#000000;stroke-width:4;stroke-linecap:square;stroke-linejoin:round;stroke-miterlimit:4;stroke-dashoffset:0;stroke-opacity:1"
       id="rect3343"
       inkscape:connector-curvature="0" />
    <path
       d="m 433.11734,619.55066 -9.96333,-9.96333"
       style="display:inline;fill:none;stroke:#000000;stroke-width:4;stroke-linecap:square;stroke-linejoin:round;stroke-miterlimit:4;stroke-dashoffset:0;stroke-opacity:1"
       id="path3352"
       inkscape:connector-curvature="0" />
    <path
       d="m 441.42857,591.31278 -7.87916,7.87916"
       style="display:inline;fill:none;stroke:#000000;stroke-width:4;stroke-linecap:square;stroke-linejoin:round;stroke-miterlimit:4;stroke-dashoffset:0;stroke-opacity:1"
       id="path3364"
       inkscape:connector-curvature="0" />
    <path
       d="m 447.45232,605.21568 -9.96333,-9.96333"
       style="display:inline;fill:none;stroke:#000000;stroke-width:4;stroke-linecap:square;stroke-linejoin:round;stroke-miterlimit:4;stroke-dashoffset:0;stroke-opacity:1"
       id="path3366"
       inkscape:connector-curvature="0" />
    <path
       d="m 296.30415,584.14518 -9.96332,9.96333"
       style="display:inline;fill:none;stroke:#000000;stroke-width:4;stroke-linecap:square;stroke-linejoin:round;stroke-miterlimit:4;stroke-dashoffset:0;stroke-opacity:1"
       id="rect3380"
       inkscape:connector-curvature="0" />
    <path
       d="m 306.75446,602.36485 7.87915,7.87916"
       style="display:inline;fill:none;stroke:#000000;stroke-width:4;stroke-linecap:square;stroke-linejoin:miter;stroke-miterlimit:4;stroke-dashoffset:0;stroke-opacity:1"
       id="path3384"
       inkscape:connector-curvature="0" />
    <g
       id="g5344"
       mask="none"
       transform="translate(15,-15)">
      <path
         d="m 441.42857,591.31278 -7.87916,7.87916"
         style="display:inline;fill:none;stroke:#000000;stroke-width:4;stroke-linecap:square;stroke-linejoin:round;stroke-miterlimit:4;stroke-dashoffset:0;stroke-opacity:1"
         id="path5338"
         inkscape:connector-curvature="0" />
      <path
         d="m 447.45232,605.21568 -9.96333,-9.96333"
         style="display:inline;fill:none;stroke:#000000;stroke-width:4;stroke-linecap:square;stroke-linejoin:round;stroke-miterlimit:4;stroke-dashoffset:0;stroke-opacity:1"
         id="path5340"
         inkscape:connector-curvature="0" />
    </g>
  </g>
  <text
     xml:space="preserve"
     style="font-style:normal;font-weight:normal;font-size:40px;line-height:1.25;font-family:sans-serif;letter-spacing:6px;word-spacing:0px;opacity:1;fill:#000000;fill-opacity:1;stroke:#000000;stroke-width:2;stroke-linecap:butt;stroke-linejoin:miter;stroke-miterlimit:4;stroke-dasharray:none;stroke-opacity:1;filter:url(#filter5313)"
     x="44"
     y="160"
     id="text4622"><tspan
       sodipodi:role="line"
       id="tspan4620"
       x="44"
       y="160"
       style="font-size:85.33333588px;line-height:4.25;letter-spacing:6px;fill:#ffffff;stroke:#000000;stroke-width:2;stroke-linecap:butt;stroke-linejoin:miter;stroke-miterlimit:4;stroke-dasharray:none;stroke-opacity:1">TTT</tspan></text>
</svg>
